<svg width="219" height="154" viewBox="0 0 219 154" fill="none" xmlns="http://www.w3.org/2000/svg">
<g filter="url(#filter0_bdi_148_95)">
<g clip-path="url(#clip0_148_95)">
<rect x="12" y="13.2017" width="48" height="48" rx="12" fill="url(#paint0_linear_148_95)" fill-opacity="0.04" shape-rendering="crispEdges"/>
<g style="mix-blend-mode:plus-lighter" opacity="0.5" filter="url(#filter1_f_148_95)">
<rect x="22" y="23.2017" width="28" height="28" rx="14" fill="#1275B1"/>
<path d="M32.6186 30.8938C32.6186 31.8284 31.8085 32.586 30.8093 32.586C29.81 32.586 29 31.8284 29 30.8938C29 29.9593 29.81 29.2017 30.8093 29.2017C31.8085 29.2017 32.6186 29.9593 32.6186 30.8938Z" fill="white"/>
<path d="M29.2474 33.8298H32.3402V43.2017H29.2474V33.8298Z" fill="white"/>
<path d="M37.3196 33.8298H34.2268V43.2017H37.3196C37.3196 43.2017 37.3196 40.2512 37.3196 38.4065C37.3196 37.2993 37.6977 36.1872 39.2062 36.1872C40.911 36.1872 40.9008 37.6362 40.8928 38.7588C40.8824 40.2261 40.9072 41.7235 40.9072 43.2017H44V38.2554C43.9738 35.097 43.1508 33.6417 40.4433 33.6417C38.8354 33.6417 37.8387 34.3717 37.3196 35.0322V33.8298Z" fill="white"/>
</g>
<rect x="22" y="23.2017" width="28" height="28" rx="14" fill="#1275B1"/>
<path d="M32.6186 30.8938C32.6186 31.8284 31.8085 32.586 30.8093 32.586C29.81 32.586 29 31.8284 29 30.8938C29 29.9593 29.81 29.2017 30.8093 29.2017C31.8085 29.2017 32.6186 29.9593 32.6186 30.8938Z" fill="white"/>
<path d="M29.2474 33.8298H32.3402V43.2017H29.2474V33.8298Z" fill="white"/>
<path d="M37.3196 33.8298H34.2268V43.2017H37.3196C37.3196 43.2017 37.3196 40.2512 37.3196 38.4065C37.3196 37.2993 37.6977 36.1872 39.2062 36.1872C40.911 36.1872 40.9008 37.6362 40.8928 38.7588C40.8824 40.2261 40.9072 41.7235 40.9072 43.2017H44V38.2554C43.9738 35.097 43.1508 33.6417 40.4433 33.6417C38.8354 33.6417 37.8387 34.3717 37.3196 35.0322V33.8298Z" fill="white"/>
<g filter="url(#filter2_f_148_95)">
<ellipse cx="36.5" cy="60.7017" rx="11.5" ry="6.5" fill="#1A75B0"/>
</g>
</g>
<rect x="12" y="13.2017" width="48" height="48" rx="12" stroke="url(#paint1_linear_148_95)" stroke-opacity="0.5" stroke-width="0.8" shape-rendering="crispEdges"/>
</g>
<g style="mix-blend-mode:screen" filter="url(#filter3_f_148_95)">
<circle cx="29" cy="30" r="9" fill="white" fill-opacity="0.18"/>
</g>
<g filter="url(#filter4_bdi_148_95)">
<g clip-path="url(#clip1_148_95)">
<rect x="146" y="13.2017" width="48" height="48" rx="12" fill="url(#paint2_linear_148_95)" fill-opacity="0.04" shape-rendering="crispEdges"/>
<g style="mix-blend-mode:plus-lighter" opacity="0.5" filter="url(#filter5_f_148_95)">
<rect x="156" y="23.2017" width="28" height="28" rx="14" fill="#1275B1"/>
<path d="M166.619 30.8938C166.619 31.8284 165.809 32.586 164.809 32.586C163.81 32.586 163 31.8284 163 30.8938C163 29.9593 163.81 29.2017 164.809 29.2017C165.809 29.2017 166.619 29.9593 166.619 30.8938Z" fill="white"/>
<path d="M163.247 33.8298H166.34V43.2017H163.247V33.8298Z" fill="white"/>
<path d="M171.32 33.8298H168.227V43.2017H171.32C171.32 43.2017 171.32 40.2512 171.32 38.4065C171.32 37.2993 171.698 36.1872 173.206 36.1872C174.911 36.1872 174.901 37.6362 174.893 38.7588C174.882 40.2261 174.907 41.7235 174.907 43.2017H178V38.2554C177.974 35.097 177.151 33.6417 174.443 33.6417C172.835 33.6417 171.839 34.3717 171.32 35.0322V33.8298Z" fill="white"/>
</g>
<rect x="156" y="23.2017" width="28" height="28" rx="14" fill="#1275B1"/>
<path d="M166.619 30.8938C166.619 31.8284 165.809 32.586 164.809 32.586C163.81 32.586 163 31.8284 163 30.8938C163 29.9593 163.81 29.2017 164.809 29.2017C165.809 29.2017 166.619 29.9593 166.619 30.8938Z" fill="white"/>
<path d="M163.247 33.8298H166.34V43.2017H163.247V33.8298Z" fill="white"/>
<path d="M171.32 33.8298H168.227V43.2017H171.32C171.32 43.2017 171.32 40.2512 171.32 38.4065C171.32 37.2993 171.698 36.1872 173.206 36.1872C174.911 36.1872 174.901 37.6362 174.893 38.7588C174.882 40.2261 174.907 41.7235 174.907 43.2017H178V38.2554C177.974 35.097 177.151 33.6417 174.443 33.6417C172.835 33.6417 171.839 34.3717 171.32 35.0322V33.8298Z" fill="white"/>
<g filter="url(#filter6_f_148_95)">
<ellipse cx="170.5" cy="60.7017" rx="11.5" ry="6.5" fill="#1A75B0"/>
</g>
</g>
<rect x="146" y="13.2017" width="48" height="48" rx="12" stroke="url(#paint3_linear_148_95)" stroke-opacity="0.5" stroke-width="0.8" shape-rendering="crispEdges"/>
</g>
<g style="mix-blend-mode:screen" filter="url(#filter7_f_148_95)">
<circle cx="163" cy="30" r="9" fill="white" fill-opacity="0.18"/>
</g>
<g filter="url(#filter8_bdi_148_95)">
<g clip-path="url(#clip2_148_95)">
<rect x="12" y="84.7983" width="48" height="48" rx="12" fill="url(#paint4_linear_148_95)" fill-opacity="0.04" shape-rendering="crispEdges"/>
<g style="mix-blend-mode:plus-lighter" opacity="0.5" clip-path="url(#clip3_148_95)" filter="url(#filter9_f_148_95)">
<path d="M44.8989 98.0379L36.0944 104.909L27.0885 98.0379V98.0398L27.0994 98.049V107.671L35.9928 114.69L44.8989 107.942V98.0379Z" fill="#EA4335"/>
<path d="M47.211 96.3665L44.8988 98.0379V107.942L52.1746 102.356V98.9906C52.1746 98.9906 51.2914 94.1844 47.211 96.3665Z" fill="#FBBC05"/>
<path d="M44.8988 107.942V120.787H50.4753C50.4753 120.787 52.0621 120.624 52.1764 118.815V102.356L44.8988 107.942Z" fill="#34A853"/>
<path d="M27.0998 120.798V107.67L27.0885 107.661L27.0998 120.798Z" fill="#C5221F"/>
<path d="M27.0885 98.0399L24.7889 96.3778C20.7085 94.1957 19.8235 99 19.8235 99V102.365L27.0885 107.661V98.0399Z" fill="#C5221F"/>
<path d="M27.0885 98.0397V107.661L27.0998 107.671V98.049L27.0885 98.0397Z" fill="#C5221F"/>
<path d="M19.8235 102.367V118.826C19.936 120.637 21.5246 120.798 21.5246 120.798H27.1011L27.0885 107.661L19.8235 102.367Z" fill="#4285F4"/>
</g>
<g filter="url(#filter10_d_148_95)">
<path d="M44.1871 98.8588L36.0869 105.18L27.8015 98.8588V98.8605L27.8115 98.869V107.721L35.9934 114.179L44.1871 107.97V98.8588Z" fill="#EA4335"/>
<path d="M46.3141 97.321L44.1869 98.8587V107.97L50.8806 102.831V99.7352C50.8806 99.7352 50.0681 95.3135 46.3141 97.321Z" fill="#FBBC05"/>
<path d="M44.1869 107.97V119.788H49.3173C49.3173 119.788 50.7772 119.638 50.8823 117.974V102.831L44.1869 107.97Z" fill="#34A853"/>
<path d="M27.8118 119.798V107.721L27.8015 107.712L27.8118 119.798Z" fill="#C5221F"/>
<path d="M27.8014 98.8606L25.6858 97.3314C21.9319 95.3239 21.1177 99.7439 21.1177 99.7439V102.84L27.8014 107.712V98.8606Z" fill="#C5221F"/>
<path d="M27.8015 98.8604V107.712L27.8118 107.721V98.869L27.8015 98.8604Z" fill="#C5221F"/>
<path d="M21.1177 102.841V117.984C21.2211 119.65 22.6827 119.798 22.6827 119.798H27.8131L27.8014 107.712L21.1177 102.841Z" fill="#4285F4"/>
</g>
<g filter="url(#filter11_f_148_95)">
<ellipse cx="36.5" cy="132.298" rx="11.5" ry="6.5" fill="#EB4A3C"/>
</g>
</g>
<rect x="12" y="84.7983" width="48" height="48" rx="12" stroke="url(#paint5_linear_148_95)" stroke-opacity="0.5" stroke-width="0.8" shape-rendering="crispEdges"/>
</g>
<g style="mix-blend-mode:screen" filter="url(#filter12_f_148_95)">
<circle cx="29" cy="101.597" r="9" fill="white" fill-opacity="0.18"/>
</g>
<g filter="url(#filter13_bdi_148_95)">
<g clip-path="url(#clip4_148_95)">
<rect x="146" y="84.7983" width="48" height="48" rx="12" fill="url(#paint6_linear_148_95)" fill-opacity="0.04" shape-rendering="crispEdges"/>
<g style="mix-blend-mode:plus-lighter" opacity="0.5" clip-path="url(#clip5_148_95)" filter="url(#filter14_f_148_95)">
<path d="M178.899 98.0379L170.094 104.909L161.089 98.0379V98.0398L161.099 98.049V107.671L169.993 114.69L178.899 107.942V98.0379Z" fill="#EA4335"/>
<path d="M181.211 96.3665L178.899 98.0379V107.942L186.175 102.356V98.9906C186.175 98.9906 185.291 94.1844 181.211 96.3665Z" fill="#FBBC05"/>
<path d="M178.899 107.942V120.787H184.475C184.475 120.787 186.062 120.624 186.176 118.815V102.356L178.899 107.942Z" fill="#34A853"/>
<path d="M161.1 120.798V107.67L161.089 107.661L161.1 120.798Z" fill="#C5221F"/>
<path d="M161.088 98.0399L158.789 96.3778C154.709 94.1957 153.824 99 153.824 99V102.365L161.088 107.661V98.0399Z" fill="#C5221F"/>
<path d="M161.089 98.0397V107.661L161.1 107.671V98.049L161.089 98.0397Z" fill="#C5221F"/>
<path d="M153.824 102.367V118.826C153.936 120.637 155.525 120.798 155.525 120.798H161.101L161.088 107.661L153.824 102.367Z" fill="#4285F4"/>
</g>
<g filter="url(#filter15_d_148_95)">
<path d="M178.187 98.8588L170.087 105.18L161.801 98.8588V98.8605L161.811 98.869V107.721L169.993 114.179L178.187 107.97V98.8588Z" fill="#EA4335"/>
<path d="M180.314 97.321L178.187 98.8587V107.97L184.881 102.831V99.7352C184.881 99.7352 184.068 95.3135 180.314 97.321Z" fill="#FBBC05"/>
<path d="M178.187 107.97V119.788H183.317C183.317 119.788 184.777 119.638 184.882 117.974V102.831L178.187 107.97Z" fill="#34A853"/>
<path d="M161.812 119.798V107.721L161.801 107.712L161.812 119.798Z" fill="#C5221F"/>
<path d="M161.801 98.8606L159.686 97.3314C155.932 95.3239 155.118 99.7439 155.118 99.7439V102.84L161.801 107.712V98.8606Z" fill="#C5221F"/>
<path d="M161.801 98.8604V107.712L161.812 107.721V98.869L161.801 98.8604Z" fill="#C5221F"/>
<path d="M155.118 102.841V117.984C155.221 119.65 156.683 119.798 156.683 119.798H161.813L161.801 107.712L155.118 102.841Z" fill="#4285F4"/>
</g>
<g filter="url(#filter16_f_148_95)">
<ellipse cx="170.5" cy="132.298" rx="11.5" ry="6.5" fill="#EB4A3C"/>
</g>
</g>
<rect x="146" y="84.7983" width="48" height="48" rx="12" stroke="url(#paint7_linear_148_95)" stroke-opacity="0.5" stroke-width="0.8" shape-rendering="crispEdges"/>
</g>
<g style="mix-blend-mode:screen" filter="url(#filter17_f_148_95)">
<circle cx="163" cy="101.597" r="9" fill="white" fill-opacity="0.18"/>
</g>
<g filter="url(#filter18_bdi_148_95)">
<g clip-path="url(#clip6_148_95)">
<rect x="79" y="13.2017" width="48" height="48" rx="12" fill="url(#paint8_linear_148_95)" fill-opacity="0.04" shape-rendering="crispEdges"/>
<g style="mix-blend-mode:plus-lighter" opacity="0.5" filter="url(#filter19_f_148_95)">
<path fill-rule="evenodd" clip-rule="evenodd" d="M117 37.2017C117 44.9336 110.732 51.2017 103 51.2017C95.268 51.2017 89 44.9336 89 37.2017C89 29.4697 95.268 23.2017 103 23.2017C110.732 23.2017 117 29.4697 117 37.2017ZM107.924 48.1481C106.422 48.825 104.755 49.2017 103 49.2017C100.103 49.2017 97.4459 48.1751 95.3724 46.466C97.5294 42.8464 100.999 40.1019 105.123 38.8878C106.308 41.8598 107.249 44.9547 107.924 48.1481ZM109.749 47.1255C109.084 44.1368 108.193 41.2334 107.094 38.4344C108.009 38.2813 108.948 38.2017 109.906 38.2017C111.637 38.2017 113.305 38.4613 114.875 38.9432C114.381 42.3399 112.464 45.2754 109.749 47.1255ZM114.996 36.895C113.376 36.443 111.669 36.2017 109.906 36.2017C108.678 36.2017 107.477 36.3188 106.314 36.5426C106.01 35.8425 105.694 35.1494 105.364 34.4636C107.982 33.3015 110.402 31.7735 112.558 29.9446C114.033 31.8841 114.931 34.2861 114.996 36.895ZM111.219 28.4578C109.195 30.1675 106.924 31.5932 104.467 32.6737C103.17 30.1935 101.702 27.817 100.078 25.5598C101.014 25.3259 101.992 25.2017 103 25.2017C106.18 25.2017 109.071 26.4387 111.219 28.4578ZM98.1025 26.2433C94.5797 27.8201 91.9561 31.0457 91.2131 34.9385C91.8958 34.9886 92.5855 35.0142 93.2813 35.0142C96.5492 35.0142 99.6851 34.4508 102.597 33.4158C101.275 30.9088 99.7706 28.5121 98.1025 26.2433ZM91.0031 36.9284C91.001 37.0192 91 37.1103 91 37.2017C91 40.1937 92.095 42.93 93.9062 45.0316C96.292 41.251 99.982 38.3737 104.345 37.0328C104.076 36.4209 103.796 35.8147 103.506 35.2143C100.317 36.3787 96.873 37.0142 93.2813 37.0142C92.5149 37.0142 91.7552 36.9852 91.0031 36.9284Z" fill="#E84C88"/>
</g>
<path fill-rule="evenodd" clip-rule="evenodd" d="M117 37.2017C117 44.9336 110.732 51.2017 103 51.2017C95.268 51.2017 89 44.9336 89 37.2017C89 29.4697 95.268 23.2017 103 23.2017C110.732 23.2017 117 29.4697 117 37.2017ZM107.924 48.1481C106.422 48.825 104.755 49.2017 103 49.2017C100.103 49.2017 97.4459 48.1751 95.3724 46.466C97.5294 42.8464 100.999 40.1019 105.123 38.8878C106.308 41.8598 107.249 44.9547 107.924 48.1481ZM109.749 47.1255C109.084 44.1368 108.193 41.2334 107.094 38.4344C108.009 38.2813 108.948 38.2017 109.906 38.2017C111.637 38.2017 113.305 38.4613 114.875 38.9432C114.381 42.3399 112.464 45.2754 109.749 47.1255ZM114.996 36.895C113.376 36.443 111.669 36.2017 109.906 36.2017C108.678 36.2017 107.477 36.3188 106.314 36.5426C106.01 35.8425 105.694 35.1494 105.364 34.4636C107.982 33.3015 110.402 31.7735 112.558 29.9446C114.033 31.8841 114.931 34.2861 114.996 36.895ZM111.219 28.4578C109.195 30.1675 106.924 31.5932 104.467 32.6737C103.17 30.1935 101.702 27.817 100.078 25.5598C101.014 25.3259 101.992 25.2017 103 25.2017C106.18 25.2017 109.071 26.4387 111.219 28.4578ZM98.1025 26.2433C94.5797 27.8201 91.9561 31.0457 91.2131 34.9385C91.8958 34.9886 92.5855 35.0142 93.2813 35.0142C96.5492 35.0142 99.6851 34.4508 102.597 33.4158C101.275 30.9088 99.7706 28.5121 98.1025 26.2433ZM91.0031 36.9284C91.001 37.0192 91 37.1103 91 37.2017C91 40.1937 92.095 42.93 93.9062 45.0316C96.292 41.251 99.982 38.3737 104.345 37.0328C104.076 36.4209 103.796 35.8147 103.506 35.2143C100.317 36.3787 96.873 37.0142 93.2813 37.0142C92.5149 37.0142 91.7552 36.9852 91.0031 36.9284Z" fill="#E84C88"/>
<g filter="url(#filter20_f_148_95)">
<ellipse cx="103.5" cy="60.7017" rx="11.5" ry="6.5" fill="#E84E89"/>
</g>
</g>
<rect x="79" y="13.2017" width="48" height="48" rx="12" stroke="url(#paint9_linear_148_95)" stroke-opacity="0.5" stroke-width="0.8" shape-rendering="crispEdges"/>
</g>
<mask id="mask0_148_95" style="mask-type:alpha" maskUnits="userSpaceOnUse" x="87" y="21" width="32" height="32">
<path fill-rule="evenodd" clip-rule="evenodd" d="M117 37C117 44.732 110.732 51 103 51C95.268 51 89 44.732 89 37C89 29.268 95.268 23 103 23C110.732 23 117 29.268 117 37ZM107.924 47.9465C106.422 48.6234 104.755 49 103 49C100.103 49 97.4459 47.9735 95.3724 46.2643C97.5294 42.6447 100.999 39.9003 105.123 38.6861C106.308 41.6581 107.249 44.7531 107.924 47.9465ZM109.749 46.9239C109.084 43.9351 108.193 41.0318 107.094 38.2327C108.009 38.0797 108.948 38 109.906 38C111.637 38 113.305 38.2596 114.875 38.7415C114.381 42.1382 112.464 45.0737 109.749 46.9239ZM114.996 36.6933C113.376 36.2414 111.669 36 109.906 36C108.678 36 107.477 36.1172 106.314 36.3409C106.01 35.6408 105.694 34.9477 105.364 34.262C107.982 33.0999 110.402 31.5718 112.558 29.7429C114.033 31.6824 114.931 34.0845 114.996 36.6933ZM111.219 28.2561C109.195 29.9658 106.924 31.3915 104.467 32.4721C103.17 29.9919 101.702 27.6153 100.078 25.3582C101.014 25.1242 101.992 25 103 25C106.18 25 109.071 26.237 111.219 28.2561ZM98.1025 26.0416C94.5797 27.6184 91.9561 30.844 91.2131 34.7368C91.8958 34.787 92.5855 34.8125 93.2813 34.8125C96.5492 34.8125 99.6851 34.2492 102.597 33.2142C101.275 30.7071 99.7706 28.3105 98.1025 26.0416ZM91.0031 36.7267C91.001 36.8176 91 36.9087 91 37C91 39.992 92.095 42.7283 93.9062 44.8299C96.292 41.0493 99.982 38.172 104.345 36.8311C104.076 36.2193 103.796 35.6131 103.506 35.0127C100.317 36.1771 96.873 36.8125 93.2813 36.8125C92.5149 36.8125 91.7552 36.7836 91.0031 36.7267Z" fill="#E84C88"/>
</mask>
<g mask="url(#mask0_148_95)">
<g style="mix-blend-mode:screen" filter="url(#filter21_f_148_95)">
<circle cx="96" cy="30" r="9" fill="#FFABCC"/>
</g>
</g>
<g filter="url(#filter22_bdi_148_95)">
<g clip-path="url(#clip7_148_95)">
<rect x="79" y="84.7983" width="48" height="48" rx="12" fill="url(#paint10_linear_148_95)" fill-opacity="0.04" shape-rendering="crispEdges"/>
<g style="mix-blend-mode:plus-lighter" opacity="0.5" filter="url(#filter23_f_148_95)">
<circle cx="103" cy="108.798" r="14" fill="#105DFB"/>
<path fill-rule="evenodd" clip-rule="evenodd" d="M93.876 114.758V102.542H99.5232C101.337 102.542 102.808 104.012 102.808 105.826C102.808 106.979 102.453 107.693 101.154 108.425C102.709 109.134 103.141 110.116 103.141 111.486C103.141 113.339 101.494 114.758 99.6414 114.758H93.876ZM96.2657 104.564V107.501H99.0625C99.0625 107.501 100.422 107.501 100.422 106.033C100.422 104.564 99.0625 104.564 99.0625 104.564H96.2657ZM96.2657 112.689V109.517H99.2657C99.75 109.517 100.766 109.767 100.766 111.267C100.766 112.38 99.7657 112.678 99.2657 112.689H96.2657Z" fill="white"/>
<path fill-rule="evenodd" clip-rule="evenodd" d="M108.25 105.908C106.531 105.908 103.984 107.142 103.984 110.423C103.984 112.421 105.078 114.986 108.359 114.986C110.984 114.986 112.193 113.059 112.469 112.095H110C109.875 112.533 109.391 113.017 108.359 113.017C106.859 113.017 106.328 111.736 106.25 111.095H112.469V110.423C112.469 107.142 109.969 105.908 108.25 105.908ZM108.25 107.783C106.85 107.783 106.333 108.939 106.25 109.517H110C110 108.939 109.65 107.783 108.25 107.783Z" fill="white"/>
<path d="M105.266 103.236V104.751H111.156V103.236H105.266Z" fill="white"/>
</g>
<circle cx="103" cy="108.798" r="14" fill="#105DFB"/>
<path fill-rule="evenodd" clip-rule="evenodd" d="M93.876 114.758V102.542H99.5232C101.337 102.542 102.808 104.012 102.808 105.826C102.808 106.979 102.453 107.693 101.154 108.425C102.709 109.134 103.141 110.116 103.141 111.486C103.141 113.339 101.494 114.758 99.6414 114.758H93.876ZM96.2657 104.564V107.501H99.0625C99.0625 107.501 100.422 107.501 100.422 106.033C100.422 104.564 99.0625 104.564 99.0625 104.564H96.2657ZM96.2657 112.689V109.517H99.2657C99.75 109.517 100.766 109.767 100.766 111.267C100.766 112.38 99.7657 112.678 99.2657 112.689H96.2657Z" fill="white"/>
<path fill-rule="evenodd" clip-rule="evenodd" d="M108.25 105.908C106.531 105.908 103.984 107.142 103.984 110.423C103.984 112.421 105.078 114.986 108.359 114.986C110.984 114.986 112.193 113.059 112.469 112.095H110C109.875 112.533 109.391 113.017 108.359 113.017C106.859 113.017 106.328 111.736 106.25 111.095H112.469V110.423C112.469 107.142 109.969 105.908 108.25 105.908ZM108.25 107.783C106.85 107.783 106.333 108.939 106.25 109.517H110C110 108.939 109.65 107.783 108.25 107.783Z" fill="white"/>
<path d="M105.266 103.236V104.751H111.156V103.236H105.266Z" fill="white"/>
<g filter="url(#filter24_f_148_95)">
<ellipse cx="103.5" cy="132.298" rx="11.5" ry="6.5" fill="#1460F9"/>
</g>
</g>
<rect x="79" y="84.7983" width="48" height="48" rx="12" stroke="url(#paint11_linear_148_95)" stroke-opacity="0.5" stroke-width="0.8" shape-rendering="crispEdges"/>
</g>
<g style="mix-blend-mode:screen" filter="url(#filter25_f_148_95)">
<circle cx="96" cy="101.597" r="9" fill="white" fill-opacity="0.18"/>
</g>
<defs>
<filter id="filter0_bdi_148_95" x="-8.40002" y="-7.19836" width="92.8" height="88.8" filterUnits="userSpaceOnUse" color-interpolation-filters="sRGB">
<feFlood flood-opacity="0" result="BackgroundImageFix"/>
<feGaussianBlur in="BackgroundImageFix" stdDeviation="10"/>
<feComposite in2="SourceAlpha" operator="in" result="effect1_backgroundBlur_148_95"/>
<feColorMatrix in="SourceAlpha" type="matrix" values="0 0 0 0 0 0 0 0 0 0 0 0 0 0 0 0 0 0 127 0" result="hardAlpha"/>
<feOffset dx="8" dy="4"/>
<feGaussianBlur stdDeviation="8"/>
<feComposite in2="hardAlpha" operator="out"/>
<feColorMatrix type="matrix" values="0 0 0 0 0 0 0 0 0 0 0 0 0 0 0 0 0 0 0.08 0"/>
<feBlend mode="normal" in2="effect1_backgroundBlur_148_95" result="effect2_dropShadow_148_95"/>
<feBlend mode="normal" in="SourceGraphic" in2="effect2_dropShadow_148_95" result="shape"/>
<feColorMatrix in="SourceAlpha" type="matrix" values="0 0 0 0 0 0 0 0 0 0 0 0 0 0 0 0 0 0 127 0" result="hardAlpha"/>
<feOffset/>
<feGaussianBlur stdDeviation="4"/>
<feComposite in2="hardAlpha" operator="arithmetic" k2="-1" k3="1"/>
<feColorMatrix type="matrix" values="0 0 0 0 0.0509804 0 0 0 0 0.538353 0 0 0 0 0.988235 0 0 0 0.32 0"/>
<feBlend mode="normal" in2="shape" result="effect3_innerShadow_148_95"/>
</filter>
<filter id="filter1_f_148_95" x="8" y="9.20166" width="56" height="56" filterUnits="userSpaceOnUse" color-interpolation-filters="sRGB">
<feFlood flood-opacity="0" result="BackgroundImageFix"/>
<feBlend mode="normal" in="SourceGraphic" in2="BackgroundImageFix" result="shape"/>
<feGaussianBlur stdDeviation="6" result="effect1_foregroundBlur_148_95"/>
</filter>
<filter id="filter2_f_148_95" x="7" y="36.2017" width="59" height="49" filterUnits="userSpaceOnUse" color-interpolation-filters="sRGB">
<feFlood flood-opacity="0" result="BackgroundImageFix"/>
<feBlend mode="normal" in="SourceGraphic" in2="BackgroundImageFix" result="shape"/>
<feGaussianBlur stdDeviation="9" result="effect1_foregroundBlur_148_95"/>
</filter>
<filter id="filter3_f_148_95" x="0" y="1" width="58" height="58" filterUnits="userSpaceOnUse" color-interpolation-filters="sRGB">
<feFlood flood-opacity="0" result="BackgroundImageFix"/>
<feBlend mode="normal" in="SourceGraphic" in2="BackgroundImageFix" result="shape"/>
<feGaussianBlur stdDeviation="10" result="effect1_foregroundBlur_148_95"/>
</filter>
<filter id="filter4_bdi_148_95" x="125.6" y="-7.19836" width="92.8" height="88.8" filterUnits="userSpaceOnUse" color-interpolation-filters="sRGB">
<feFlood flood-opacity="0" result="BackgroundImageFix"/>
<feGaussianBlur in="BackgroundImageFix" stdDeviation="10"/>
<feComposite in2="SourceAlpha" operator="in" result="effect1_backgroundBlur_148_95"/>
<feColorMatrix in="SourceAlpha" type="matrix" values="0 0 0 0 0 0 0 0 0 0 0 0 0 0 0 0 0 0 127 0" result="hardAlpha"/>
<feOffset dx="8" dy="4"/>
<feGaussianBlur stdDeviation="8"/>
<feComposite in2="hardAlpha" operator="out"/>
<feColorMatrix type="matrix" values="0 0 0 0 0 0 0 0 0 0 0 0 0 0 0 0 0 0 0.08 0"/>
<feBlend mode="normal" in2="effect1_backgroundBlur_148_95" result="effect2_dropShadow_148_95"/>
<feBlend mode="normal" in="SourceGraphic" in2="effect2_dropShadow_148_95" result="shape"/>
<feColorMatrix in="SourceAlpha" type="matrix" values="0 0 0 0 0 0 0 0 0 0 0 0 0 0 0 0 0 0 127 0" result="hardAlpha"/>
<feOffset/>
<feGaussianBlur stdDeviation="4"/>
<feComposite in2="hardAlpha" operator="arithmetic" k2="-1" k3="1"/>
<feColorMatrix type="matrix" values="0 0 0 0 0.0509804 0 0 0 0 0.538353 0 0 0 0 0.988235 0 0 0 0.32 0"/>
<feBlend mode="normal" in2="shape" result="effect3_innerShadow_148_95"/>
</filter>
<filter id="filter5_f_148_95" x="142" y="9.20166" width="56" height="56" filterUnits="userSpaceOnUse" color-interpolation-filters="sRGB">
<feFlood flood-opacity="0" result="BackgroundImageFix"/>
<feBlend mode="normal" in="SourceGraphic" in2="BackgroundImageFix" result="shape"/>
<feGaussianBlur stdDeviation="6" result="effect1_foregroundBlur_148_95"/>
</filter>
<filter id="filter6_f_148_95" x="141" y="36.2017" width="59" height="49" filterUnits="userSpaceOnUse" color-interpolation-filters="sRGB">
<feFlood flood-opacity="0" result="BackgroundImageFix"/>
<feBlend mode="normal" in="SourceGraphic" in2="BackgroundImageFix" result="shape"/>
<feGaussianBlur stdDeviation="9" result="effect1_foregroundBlur_148_95"/>
</filter>
<filter id="filter7_f_148_95" x="134" y="1" width="58" height="58" filterUnits="userSpaceOnUse" color-interpolation-filters="sRGB">
<feFlood flood-opacity="0" result="BackgroundImageFix"/>
<feBlend mode="normal" in="SourceGraphic" in2="BackgroundImageFix" result="shape"/>
<feGaussianBlur stdDeviation="10" result="effect1_foregroundBlur_148_95"/>
</filter>
<filter id="filter8_bdi_148_95" x="-8.40002" y="64.3983" width="92.8" height="88.8" filterUnits="userSpaceOnUse" color-interpolation-filters="sRGB">
<feFlood flood-opacity="0" result="BackgroundImageFix"/>
<feGaussianBlur in="BackgroundImageFix" stdDeviation="10"/>
<feComposite in2="SourceAlpha" operator="in" result="effect1_backgroundBlur_148_95"/>
<feColorMatrix in="SourceAlpha" type="matrix" values="0 0 0 0 0 0 0 0 0 0 0 0 0 0 0 0 0 0 127 0" result="hardAlpha"/>
<feOffset dx="8" dy="4"/>
<feGaussianBlur stdDeviation="8"/>
<feComposite in2="hardAlpha" operator="out"/>
<feColorMatrix type="matrix" values="0 0 0 0 0 0 0 0 0 0 0 0 0 0 0 0 0 0 0.08 0"/>
<feBlend mode="normal" in2="effect1_backgroundBlur_148_95" result="effect2_dropShadow_148_95"/>
<feBlend mode="normal" in="SourceGraphic" in2="effect2_dropShadow_148_95" result="shape"/>
<feColorMatrix in="SourceAlpha" type="matrix" values="0 0 0 0 0 0 0 0 0 0 0 0 0 0 0 0 0 0 127 0" result="hardAlpha"/>
<feOffset/>
<feGaussianBlur stdDeviation="4"/>
<feComposite in2="hardAlpha" operator="arithmetic" k2="-1" k3="1"/>
<feColorMatrix type="matrix" values="0 0 0 0 0.921569 0 0 0 0 0.290196 0 0 0 0 0.235294 0 0 0 0.32 0"/>
<feBlend mode="normal" in2="shape" result="effect3_innerShadow_148_95"/>
</filter>
<filter id="filter9_f_148_95" x="4" y="76.7983" width="64" height="64" filterUnits="userSpaceOnUse" color-interpolation-filters="sRGB">
<feFlood flood-opacity="0" result="BackgroundImageFix"/>
<feBlend mode="normal" in="SourceGraphic" in2="BackgroundImageFix" result="shape"/>
<feGaussianBlur stdDeviation="8" result="effect1_foregroundBlur_148_95"/>
</filter>
<filter id="filter10_d_148_95" x="18" y="91.7983" width="36" height="36" filterUnits="userSpaceOnUse" color-interpolation-filters="sRGB">
<feFlood flood-opacity="0" result="BackgroundImageFix"/>
<feColorMatrix in="SourceAlpha" type="matrix" values="0 0 0 0 0 0 0 0 0 0 0 0 0 0 0 0 0 0 127 0" result="hardAlpha"/>
<feOffset dy="1"/>
<feGaussianBlur stdDeviation="1"/>
<feComposite in2="hardAlpha" operator="out"/>
<feColorMatrix type="matrix" values="0 0 0 0 0.0627451 0 0 0 0 0.0941176 0 0 0 0 0.156863 0 0 0 0.05 0"/>
<feBlend mode="normal" in2="BackgroundImageFix" result="effect1_dropShadow_148_95"/>
<feBlend mode="normal" in="SourceGraphic" in2="effect1_dropShadow_148_95" result="shape"/>
</filter>
<filter id="filter11_f_148_95" x="7" y="107.798" width="59" height="49" filterUnits="userSpaceOnUse" color-interpolation-filters="sRGB">
<feFlood flood-opacity="0" result="BackgroundImageFix"/>
<feBlend mode="normal" in="SourceGraphic" in2="BackgroundImageFix" result="shape"/>
<feGaussianBlur stdDeviation="9" result="effect1_foregroundBlur_148_95"/>
</filter>
<filter id="filter12_f_148_95" x="0" y="72.5966" width="58" height="58" filterUnits="userSpaceOnUse" color-interpolation-filters="sRGB">
<feFlood flood-opacity="0" result="BackgroundImageFix"/>
<feBlend mode="normal" in="SourceGraphic" in2="BackgroundImageFix" result="shape"/>
<feGaussianBlur stdDeviation="10" result="effect1_foregroundBlur_148_95"/>
</filter>
<filter id="filter13_bdi_148_95" x="125.6" y="64.3983" width="92.8" height="88.8" filterUnits="userSpaceOnUse" color-interpolation-filters="sRGB">
<feFlood flood-opacity="0" result="BackgroundImageFix"/>
<feGaussianBlur in="BackgroundImageFix" stdDeviation="10"/>
<feComposite in2="SourceAlpha" operator="in" result="effect1_backgroundBlur_148_95"/>
<feColorMatrix in="SourceAlpha" type="matrix" values="0 0 0 0 0 0 0 0 0 0 0 0 0 0 0 0 0 0 127 0" result="hardAlpha"/>
<feOffset dx="8" dy="4"/>
<feGaussianBlur stdDeviation="8"/>
<feComposite in2="hardAlpha" operator="out"/>
<feColorMatrix type="matrix" values="0 0 0 0 0 0 0 0 0 0 0 0 0 0 0 0 0 0 0.08 0"/>
<feBlend mode="normal" in2="effect1_backgroundBlur_148_95" result="effect2_dropShadow_148_95"/>
<feBlend mode="normal" in="SourceGraphic" in2="effect2_dropShadow_148_95" result="shape"/>
<feColorMatrix in="SourceAlpha" type="matrix" values="0 0 0 0 0 0 0 0 0 0 0 0 0 0 0 0 0 0 127 0" result="hardAlpha"/>
<feOffset/>
<feGaussianBlur stdDeviation="4"/>
<feComposite in2="hardAlpha" operator="arithmetic" k2="-1" k3="1"/>
<feColorMatrix type="matrix" values="0 0 0 0 0.921569 0 0 0 0 0.290196 0 0 0 0 0.235294 0 0 0 0.32 0"/>
<feBlend mode="normal" in2="shape" result="effect3_innerShadow_148_95"/>
</filter>
<filter id="filter14_f_148_95" x="138" y="76.7983" width="64" height="64" filterUnits="userSpaceOnUse" color-interpolation-filters="sRGB">
<feFlood flood-opacity="0" result="BackgroundImageFix"/>
<feBlend mode="normal" in="SourceGraphic" in2="BackgroundImageFix" result="shape"/>
<feGaussianBlur stdDeviation="8" result="effect1_foregroundBlur_148_95"/>
</filter>
<filter id="filter15_d_148_95" x="152" y="91.7983" width="36" height="36" filterUnits="userSpaceOnUse" color-interpolation-filters="sRGB">
<feFlood flood-opacity="0" result="BackgroundImageFix"/>
<feColorMatrix in="SourceAlpha" type="matrix" values="0 0 0 0 0 0 0 0 0 0 0 0 0 0 0 0 0 0 127 0" result="hardAlpha"/>
<feOffset dy="1"/>
<feGaussianBlur stdDeviation="1"/>
<feComposite in2="hardAlpha" operator="out"/>
<feColorMatrix type="matrix" values="0 0 0 0 0.0627451 0 0 0 0 0.0941176 0 0 0 0 0.156863 0 0 0 0.05 0"/>
<feBlend mode="normal" in2="BackgroundImageFix" result="effect1_dropShadow_148_95"/>
<feBlend mode="normal" in="SourceGraphic" in2="effect1_dropShadow_148_95" result="shape"/>
</filter>
<filter id="filter16_f_148_95" x="141" y="107.798" width="59" height="49" filterUnits="userSpaceOnUse" color-interpolation-filters="sRGB">
<feFlood flood-opacity="0" result="BackgroundImageFix"/>
<feBlend mode="normal" in="SourceGraphic" in2="BackgroundImageFix" result="shape"/>
<feGaussianBlur stdDeviation="9" result="effect1_foregroundBlur_148_95"/>
</filter>
<filter id="filter17_f_148_95" x="134" y="72.5966" width="58" height="58" filterUnits="userSpaceOnUse" color-interpolation-filters="sRGB">
<feFlood flood-opacity="0" result="BackgroundImageFix"/>
<feBlend mode="normal" in="SourceGraphic" in2="BackgroundImageFix" result="shape"/>
<feGaussianBlur stdDeviation="10" result="effect1_foregroundBlur_148_95"/>
</filter>
<filter id="filter18_bdi_148_95" x="58.6" y="-7.19836" width="92.8" height="88.8" filterUnits="userSpaceOnUse" color-interpolation-filters="sRGB">
<feFlood flood-opacity="0" result="BackgroundImageFix"/>
<feGaussianBlur in="BackgroundImageFix" stdDeviation="10"/>
<feComposite in2="SourceAlpha" operator="in" result="effect1_backgroundBlur_148_95"/>
<feColorMatrix in="SourceAlpha" type="matrix" values="0 0 0 0 0 0 0 0 0 0 0 0 0 0 0 0 0 0 127 0" result="hardAlpha"/>
<feOffset dx="8" dy="4"/>
<feGaussianBlur stdDeviation="8"/>
<feComposite in2="hardAlpha" operator="out"/>
<feColorMatrix type="matrix" values="0 0 0 0 0 0 0 0 0 0 0 0 0 0 0 0 0 0 0.08 0"/>
<feBlend mode="normal" in2="effect1_backgroundBlur_148_95" result="effect2_dropShadow_148_95"/>
<feBlend mode="normal" in="SourceGraphic" in2="effect2_dropShadow_148_95" result="shape"/>
<feColorMatrix in="SourceAlpha" type="matrix" values="0 0 0 0 0 0 0 0 0 0 0 0 0 0 0 0 0 0 127 0" result="hardAlpha"/>
<feOffset/>
<feGaussianBlur stdDeviation="4"/>
<feComposite in2="hardAlpha" operator="arithmetic" k2="-1" k3="1"/>
<feColorMatrix type="matrix" values="0 0 0 0 0.909804 0 0 0 0 0.298039 0 0 0 0 0.533333 0 0 0 0.32 0"/>
<feBlend mode="normal" in2="shape" result="effect3_innerShadow_148_95"/>
</filter>
<filter id="filter19_f_148_95" x="75" y="9.20166" width="56" height="56" filterUnits="userSpaceOnUse" color-interpolation-filters="sRGB">
<feFlood flood-opacity="0" result="BackgroundImageFix"/>
<feBlend mode="normal" in="SourceGraphic" in2="BackgroundImageFix" result="shape"/>
<feGaussianBlur stdDeviation="6" result="effect1_foregroundBlur_148_95"/>
</filter>
<filter id="filter20_f_148_95" x="74" y="36.2017" width="59" height="49" filterUnits="userSpaceOnUse" color-interpolation-filters="sRGB">
<feFlood flood-opacity="0" result="BackgroundImageFix"/>
<feBlend mode="normal" in="SourceGraphic" in2="BackgroundImageFix" result="shape"/>
<feGaussianBlur stdDeviation="9" result="effect1_foregroundBlur_148_95"/>
</filter>
<filter id="filter21_f_148_95" x="67" y="1" width="58" height="58" filterUnits="userSpaceOnUse" color-interpolation-filters="sRGB">
<feFlood flood-opacity="0" result="BackgroundImageFix"/>
<feBlend mode="normal" in="SourceGraphic" in2="BackgroundImageFix" result="shape"/>
<feGaussianBlur stdDeviation="10" result="effect1_foregroundBlur_148_95"/>
</filter>
<filter id="filter22_bdi_148_95" x="58.6" y="64.3983" width="92.8" height="88.8" filterUnits="userSpaceOnUse" color-interpolation-filters="sRGB">
<feFlood flood-opacity="0" result="BackgroundImageFix"/>
<feGaussianBlur in="BackgroundImageFix" stdDeviation="10"/>
<feComposite in2="SourceAlpha" operator="in" result="effect1_backgroundBlur_148_95"/>
<feColorMatrix in="SourceAlpha" type="matrix" values="0 0 0 0 0 0 0 0 0 0 0 0 0 0 0 0 0 0 127 0" result="hardAlpha"/>
<feOffset dx="8" dy="4"/>
<feGaussianBlur stdDeviation="8"/>
<feComposite in2="hardAlpha" operator="out"/>
<feColorMatrix type="matrix" values="0 0 0 0 0 0 0 0 0 0 0 0 0 0 0 0 0 0 0.08 0"/>
<feBlend mode="normal" in2="effect1_backgroundBlur_148_95" result="effect2_dropShadow_148_95"/>
<feBlend mode="normal" in="SourceGraphic" in2="effect2_dropShadow_148_95" result="shape"/>
<feColorMatrix in="SourceAlpha" type="matrix" values="0 0 0 0 0 0 0 0 0 0 0 0 0 0 0 0 0 0 127 0" result="hardAlpha"/>
<feOffset/>
<feGaussianBlur stdDeviation="4"/>
<feComposite in2="hardAlpha" operator="arithmetic" k2="-1" k3="1"/>
<feColorMatrix type="matrix" values="0 0 0 0 0.0784314 0 0 0 0 0.376471 0 0 0 0 0.976471 0 0 0 0.32 0"/>
<feBlend mode="normal" in2="shape" result="effect3_innerShadow_148_95"/>
</filter>
<filter id="filter23_f_148_95" x="75" y="80.7983" width="56" height="56" filterUnits="userSpaceOnUse" color-interpolation-filters="sRGB">
<feFlood flood-opacity="0" result="BackgroundImageFix"/>
<feBlend mode="normal" in="SourceGraphic" in2="BackgroundImageFix" result="shape"/>
<feGaussianBlur stdDeviation="6" result="effect1_foregroundBlur_148_95"/>
</filter>
<filter id="filter24_f_148_95" x="74" y="107.798" width="59" height="49" filterUnits="userSpaceOnUse" color-interpolation-filters="sRGB">
<feFlood flood-opacity="0" result="BackgroundImageFix"/>
<feBlend mode="normal" in="SourceGraphic" in2="BackgroundImageFix" result="shape"/>
<feGaussianBlur stdDeviation="9" result="effect1_foregroundBlur_148_95"/>
</filter>
<filter id="filter25_f_148_95" x="67" y="72.5966" width="58" height="58" filterUnits="userSpaceOnUse" color-interpolation-filters="sRGB">
<feFlood flood-opacity="0" result="BackgroundImageFix"/>
<feBlend mode="normal" in="SourceGraphic" in2="BackgroundImageFix" result="shape"/>
<feGaussianBlur stdDeviation="10" result="effect1_foregroundBlur_148_95"/>
</filter>
<linearGradient id="paint0_linear_148_95" x1="12" y1="13.2017" x2="60" y2="61.2017" gradientUnits="userSpaceOnUse">
<stop stop-color="#F8FBFF"/>
<stop offset="1" stop-color="white" stop-opacity="0"/>
</linearGradient>
<linearGradient id="paint1_linear_148_95" x1="13" y1="12.2017" x2="58.5" y2="61.2017" gradientUnits="userSpaceOnUse">
<stop stop-color="#D8D8D8" stop-opacity="0.05"/>
<stop offset="1" stop-color="white" stop-opacity="0.4"/>
</linearGradient>
<linearGradient id="paint2_linear_148_95" x1="146" y1="13.2017" x2="194" y2="61.2017" gradientUnits="userSpaceOnUse">
<stop stop-color="#F8FBFF"/>
<stop offset="1" stop-color="white" stop-opacity="0"/>
</linearGradient>
<linearGradient id="paint3_linear_148_95" x1="147" y1="12.2017" x2="192.5" y2="61.2017" gradientUnits="userSpaceOnUse">
<stop stop-color="#D8D8D8" stop-opacity="0.05"/>
<stop offset="1" stop-color="white" stop-opacity="0.4"/>
</linearGradient>
<linearGradient id="paint4_linear_148_95" x1="12" y1="84.7983" x2="60" y2="132.798" gradientUnits="userSpaceOnUse">
<stop stop-color="#F8FBFF"/>
<stop offset="1" stop-color="white" stop-opacity="0"/>
</linearGradient>
<linearGradient id="paint5_linear_148_95" x1="13" y1="83.7983" x2="58.5" y2="132.798" gradientUnits="userSpaceOnUse">
<stop stop-color="#D8D8D8" stop-opacity="0.05"/>
<stop offset="1" stop-color="white" stop-opacity="0.4"/>
</linearGradient>
<linearGradient id="paint6_linear_148_95" x1="146" y1="84.7983" x2="194" y2="132.798" gradientUnits="userSpaceOnUse">
<stop stop-color="#F8FBFF"/>
<stop offset="1" stop-color="white" stop-opacity="0"/>
</linearGradient>
<linearGradient id="paint7_linear_148_95" x1="147" y1="83.7983" x2="192.5" y2="132.798" gradientUnits="userSpaceOnUse">
<stop stop-color="#D8D8D8" stop-opacity="0.05"/>
<stop offset="1" stop-color="white" stop-opacity="0.4"/>
</linearGradient>
<linearGradient id="paint8_linear_148_95" x1="79" y1="13.2017" x2="127" y2="61.2017" gradientUnits="userSpaceOnUse">
<stop stop-color="#F8FBFF"/>
<stop offset="1" stop-color="white" stop-opacity="0"/>
</linearGradient>
<linearGradient id="paint9_linear_148_95" x1="80" y1="12.2017" x2="125.5" y2="61.2017" gradientUnits="userSpaceOnUse">
<stop stop-color="#D8D8D8" stop-opacity="0.05"/>
<stop offset="1" stop-color="white" stop-opacity="0.4"/>
</linearGradient>
<linearGradient id="paint10_linear_148_95" x1="79" y1="84.7983" x2="127" y2="132.798" gradientUnits="userSpaceOnUse">
<stop stop-color="#F8FBFF"/>
<stop offset="1" stop-color="white" stop-opacity="0"/>
</linearGradient>
<linearGradient id="paint11_linear_148_95" x1="80" y1="83.7983" x2="125.5" y2="132.798" gradientUnits="userSpaceOnUse">
<stop stop-color="#D8D8D8" stop-opacity="0.05"/>
<stop offset="1" stop-color="white" stop-opacity="0.4"/>
</linearGradient>
<clipPath id="clip0_148_95">
<rect x="12" y="13.2017" width="48" height="48" rx="12" fill="white"/>
</clipPath>
<clipPath id="clip1_148_95">
<rect x="146" y="13.2017" width="48" height="48" rx="12" fill="white"/>
</clipPath>
<clipPath id="clip2_148_95">
<rect x="12" y="84.7983" width="48" height="48" rx="12" fill="white"/>
</clipPath>
<clipPath id="clip3_148_95">
<rect width="32" height="32" fill="white" transform="translate(20 92.7983)"/>
</clipPath>
<clipPath id="clip4_148_95">
<rect x="146" y="84.7983" width="48" height="48" rx="12" fill="white"/>
</clipPath>
<clipPath id="clip5_148_95">
<rect width="32" height="32" fill="white" transform="translate(154 92.7983)"/>
</clipPath>
<clipPath id="clip6_148_95">
<rect x="79" y="13.2017" width="48" height="48" rx="12" fill="white"/>
</clipPath>
<clipPath id="clip7_148_95">
<rect x="79" y="84.7983" width="48" height="48" rx="12" fill="white"/>
</clipPath>
</defs>
</svg>
